<mxfile host="app.diagrams.net" modified="2023-05-14T14:03:57.644Z" agent="Mozilla/5.0 (Windows NT 10.0; Win64; x64) AppleWebKit/537.36 (KHTML, like Gecko) Chrome/113.0.0.0 Safari/537.36" etag="VvqneifvzKnoFNy-mkiq" version="21.3.0" type="device">
  <diagram name="Page-1" id="4PY2ln1GWtD-hNEYARX-">
    <mxGraphModel dx="1804" dy="1676" grid="1" gridSize="10" guides="1" tooltips="1" connect="1" arrows="1" fold="1" page="1" pageScale="1" pageWidth="850" pageHeight="1100" math="0" shadow="0">
      <root>
        <mxCell id="0" />
        <mxCell id="1" parent="0" />
        <mxCell id="e5oVYmnUQoA4widtPBJj-1" value="Login" style="rounded=0;whiteSpace=wrap;html=1;" parent="1" vertex="1">
          <mxGeometry x="52.5" y="50" width="70" height="30" as="geometry" />
        </mxCell>
        <mxCell id="e5oVYmnUQoA4widtPBJj-2" value="&lt;u&gt;id&lt;/u&gt;" style="ellipse;whiteSpace=wrap;html=1;" parent="1" vertex="1">
          <mxGeometry x="-10" y="-5" width="60" height="30" as="geometry" />
        </mxCell>
        <mxCell id="e5oVYmnUQoA4widtPBJj-3" value="Username" style="ellipse;whiteSpace=wrap;html=1;" parent="1" vertex="1">
          <mxGeometry x="50" y="5" width="80" height="30" as="geometry" />
        </mxCell>
        <mxCell id="e5oVYmnUQoA4widtPBJj-4" value="Password" style="ellipse;whiteSpace=wrap;html=1;" parent="1" vertex="1">
          <mxGeometry x="122.5" y="-20" width="80" height="30" as="geometry" />
        </mxCell>
        <mxCell id="e5oVYmnUQoA4widtPBJj-5" value="has" style="shape=rhombus;html=1;dashed=0;whiteSpace=wrap;perimeter=rhombusPerimeter;" parent="1" vertex="1">
          <mxGeometry x="80" y="150" width="60" height="50" as="geometry" />
        </mxCell>
        <mxCell id="e5oVYmnUQoA4widtPBJj-6" value="" style="endArrow=none;html=1;rounded=0;entryX=0.5;entryY=1;entryDx=0;entryDy=0;exitX=0;exitY=0;exitDx=0;exitDy=0;" parent="1" source="e5oVYmnUQoA4widtPBJj-1" target="e5oVYmnUQoA4widtPBJj-2" edge="1">
          <mxGeometry width="50" height="50" relative="1" as="geometry">
            <mxPoint x="260" y="310" as="sourcePoint" />
            <mxPoint x="310" y="260" as="targetPoint" />
          </mxGeometry>
        </mxCell>
        <mxCell id="e5oVYmnUQoA4widtPBJj-8" value="" style="endArrow=none;html=1;rounded=0;entryX=0.406;entryY=0.983;entryDx=0;entryDy=0;entryPerimeter=0;exitX=0.75;exitY=0;exitDx=0;exitDy=0;" parent="1" source="e5oVYmnUQoA4widtPBJj-1" target="e5oVYmnUQoA4widtPBJj-4" edge="1">
          <mxGeometry width="50" height="50" relative="1" as="geometry">
            <mxPoint x="160" y="80" as="sourcePoint" />
            <mxPoint x="310" y="260" as="targetPoint" />
          </mxGeometry>
        </mxCell>
        <mxCell id="e5oVYmnUQoA4widtPBJj-10" value="Expert" style="html=1;dashed=0;whiteSpace=wrap;" parent="1" vertex="1">
          <mxGeometry x="280" y="170" width="60" height="30" as="geometry" />
        </mxCell>
        <mxCell id="e5oVYmnUQoA4widtPBJj-11" value="" style="endArrow=none;html=1;rounded=0;exitX=1;exitY=0.5;exitDx=0;exitDy=0;entryX=0;entryY=0.25;entryDx=0;entryDy=0;" parent="1" source="e5oVYmnUQoA4widtPBJj-5" target="e5oVYmnUQoA4widtPBJj-10" edge="1">
          <mxGeometry width="50" height="50" relative="1" as="geometry">
            <mxPoint x="260" y="310" as="sourcePoint" />
            <mxPoint x="310" y="260" as="targetPoint" />
          </mxGeometry>
        </mxCell>
        <mxCell id="e5oVYmnUQoA4widtPBJj-13" value="&lt;u&gt;id&lt;/u&gt;" style="ellipse;whiteSpace=wrap;html=1;" parent="1" vertex="1">
          <mxGeometry x="120" y="110" width="50" height="30" as="geometry" />
        </mxCell>
        <mxCell id="e5oVYmnUQoA4widtPBJj-15" value="firstname" style="ellipse;whiteSpace=wrap;html=1;" parent="1" vertex="1">
          <mxGeometry x="210" y="70" width="70" height="30" as="geometry" />
        </mxCell>
        <mxCell id="e5oVYmnUQoA4widtPBJj-16" value="phone" style="ellipse;whiteSpace=wrap;html=1;" parent="1" vertex="1">
          <mxGeometry x="395" y="200" width="60" height="30" as="geometry" />
        </mxCell>
        <mxCell id="e5oVYmnUQoA4widtPBJj-17" value="" style="endArrow=none;html=1;rounded=0;exitX=0;exitY=0;exitDx=0;exitDy=0;entryX=1;entryY=1;entryDx=0;entryDy=0;" parent="1" source="e5oVYmnUQoA4widtPBJj-10" edge="1" target="e5oVYmnUQoA4widtPBJj-13">
          <mxGeometry width="50" height="50" relative="1" as="geometry">
            <mxPoint x="160" y="190" as="sourcePoint" />
            <mxPoint x="210" y="140" as="targetPoint" />
          </mxGeometry>
        </mxCell>
        <mxCell id="e5oVYmnUQoA4widtPBJj-18" value="" style="endArrow=none;html=1;rounded=0;entryX=0.5;entryY=1;entryDx=0;entryDy=0;exitX=0.25;exitY=0;exitDx=0;exitDy=0;" parent="1" source="e5oVYmnUQoA4widtPBJj-10" target="e5oVYmnUQoA4widtPBJj-14" edge="1">
          <mxGeometry width="50" height="50" relative="1" as="geometry">
            <mxPoint x="260" y="310" as="sourcePoint" />
            <mxPoint x="310" y="260" as="targetPoint" />
          </mxGeometry>
        </mxCell>
        <mxCell id="e5oVYmnUQoA4widtPBJj-19" value="" style="endArrow=none;html=1;rounded=0;entryX=0.5;entryY=1;entryDx=0;entryDy=0;exitX=0.25;exitY=0;exitDx=0;exitDy=0;" parent="1" target="e5oVYmnUQoA4widtPBJj-15" edge="1" source="e5oVYmnUQoA4widtPBJj-10">
          <mxGeometry width="50" height="50" relative="1" as="geometry">
            <mxPoint x="320" y="170" as="sourcePoint" />
            <mxPoint x="310" y="260" as="targetPoint" />
          </mxGeometry>
        </mxCell>
        <mxCell id="e5oVYmnUQoA4widtPBJj-20" value="" style="endArrow=none;html=1;rounded=0;entryX=0;entryY=0.5;entryDx=0;entryDy=0;exitX=1;exitY=1;exitDx=0;exitDy=0;" parent="1" source="e5oVYmnUQoA4widtPBJj-10" target="e5oVYmnUQoA4widtPBJj-16" edge="1">
          <mxGeometry width="50" height="50" relative="1" as="geometry">
            <mxPoint x="260" y="310" as="sourcePoint" />
            <mxPoint x="310" y="260" as="targetPoint" />
          </mxGeometry>
        </mxCell>
        <mxCell id="e5oVYmnUQoA4widtPBJj-21" value="add" style="rhombus;whiteSpace=wrap;html=1;" parent="1" vertex="1">
          <mxGeometry x="165" y="200" width="60" height="50" as="geometry" />
        </mxCell>
        <mxCell id="e5oVYmnUQoA4widtPBJj-22" value="" style="endArrow=none;html=1;rounded=0;exitX=1;exitY=0.5;exitDx=0;exitDy=0;entryX=0;entryY=0.5;entryDx=0;entryDy=0;" parent="1" source="e5oVYmnUQoA4widtPBJj-21" target="e5oVYmnUQoA4widtPBJj-10" edge="1">
          <mxGeometry width="50" height="50" relative="1" as="geometry">
            <mxPoint x="260" y="310" as="sourcePoint" />
            <mxPoint x="310" y="260" as="targetPoint" />
            <Array as="points">
              <mxPoint x="250" y="225" />
              <mxPoint x="250" y="185" />
            </Array>
          </mxGeometry>
        </mxCell>
        <mxCell id="e5oVYmnUQoA4widtPBJj-23" value="" style="endArrow=none;html=1;rounded=0;exitX=0;exitY=0.5;exitDx=0;exitDy=0;entryX=0.25;entryY=1;entryDx=0;entryDy=0;" parent="1" source="e5oVYmnUQoA4widtPBJj-21" edge="1" target="e5oVYmnUQoA4widtPBJj-1">
          <mxGeometry width="50" height="50" relative="1" as="geometry">
            <mxPoint x="120" y="220" as="sourcePoint" />
            <mxPoint x="110" y="80" as="targetPoint" />
            <Array as="points">
              <mxPoint x="70" y="225" />
            </Array>
          </mxGeometry>
        </mxCell>
        <mxCell id="e5oVYmnUQoA4widtPBJj-24" value="has" style="rhombus;whiteSpace=wrap;html=1;" parent="1" vertex="1">
          <mxGeometry x="290" y="35" width="60" height="50" as="geometry" />
        </mxCell>
        <mxCell id="e5oVYmnUQoA4widtPBJj-25" value="" style="endArrow=none;html=1;rounded=0;entryX=1;entryY=0.25;entryDx=0;entryDy=0;exitX=0;exitY=0.5;exitDx=0;exitDy=0;" parent="1" source="e5oVYmnUQoA4widtPBJj-24" target="e5oVYmnUQoA4widtPBJj-1" edge="1">
          <mxGeometry width="50" height="50" relative="1" as="geometry">
            <mxPoint x="120" y="260" as="sourcePoint" />
            <mxPoint x="310" y="260" as="targetPoint" />
            <Array as="points" />
          </mxGeometry>
        </mxCell>
        <mxCell id="e5oVYmnUQoA4widtPBJj-28" value="&lt;u&gt;id&lt;/u&gt;" style="ellipse;whiteSpace=wrap;html=1;" parent="1" vertex="1">
          <mxGeometry x="370" y="-20" width="45" height="30" as="geometry" />
        </mxCell>
        <mxCell id="e5oVYmnUQoA4widtPBJj-30" value="name" style="ellipse;whiteSpace=wrap;html=1;" parent="1" vertex="1">
          <mxGeometry x="500" y="-25" width="60" height="30" as="geometry" />
        </mxCell>
        <mxCell id="e5oVYmnUQoA4widtPBJj-31" value="Phone" style="ellipse;whiteSpace=wrap;html=1;" parent="1" vertex="1">
          <mxGeometry x="790" y="20" width="60" height="30" as="geometry" />
        </mxCell>
        <mxCell id="e5oVYmnUQoA4widtPBJj-32" value="" style="endArrow=none;html=1;rounded=0;entryX=0.5;entryY=1;entryDx=0;entryDy=0;exitX=0;exitY=0.25;exitDx=0;exitDy=0;" parent="1" source="e5oVYmnUQoA4widtPBJj-26" target="e5oVYmnUQoA4widtPBJj-28" edge="1">
          <mxGeometry width="50" height="50" relative="1" as="geometry">
            <mxPoint x="280" y="310" as="sourcePoint" />
            <mxPoint x="330" y="260" as="targetPoint" />
          </mxGeometry>
        </mxCell>
        <mxCell id="e5oVYmnUQoA4widtPBJj-33" value="" style="endArrow=none;html=1;rounded=0;entryX=0.5;entryY=1;entryDx=0;entryDy=0;exitX=0.25;exitY=0;exitDx=0;exitDy=0;" parent="1" source="e5oVYmnUQoA4widtPBJj-26" target="e5oVYmnUQoA4widtPBJj-30" edge="1">
          <mxGeometry width="50" height="50" relative="1" as="geometry">
            <mxPoint x="280" y="310" as="sourcePoint" />
            <mxPoint x="330" y="260" as="targetPoint" />
          </mxGeometry>
        </mxCell>
        <mxCell id="e5oVYmnUQoA4widtPBJj-34" value="" style="endArrow=none;html=1;rounded=0;entryX=0;entryY=1;entryDx=0;entryDy=0;exitX=1;exitY=0;exitDx=0;exitDy=0;" parent="1" source="e5oVYmnUQoA4widtPBJj-26" target="e5oVYmnUQoA4widtPBJj-31" edge="1">
          <mxGeometry width="50" height="50" relative="1" as="geometry">
            <mxPoint x="530" y="90" as="sourcePoint" />
            <mxPoint x="330" y="260" as="targetPoint" />
          </mxGeometry>
        </mxCell>
        <mxCell id="e5oVYmnUQoA4widtPBJj-35" value="" style="endArrow=none;html=1;rounded=0;exitX=1;exitY=0.5;exitDx=0;exitDy=0;entryX=0;entryY=0.5;entryDx=0;entryDy=0;" parent="1" source="e5oVYmnUQoA4widtPBJj-24" target="e5oVYmnUQoA4widtPBJj-26" edge="1">
          <mxGeometry width="50" height="50" relative="1" as="geometry">
            <mxPoint x="280" y="310" as="sourcePoint" />
            <mxPoint x="480" y="90" as="targetPoint" />
            <Array as="points" />
          </mxGeometry>
        </mxCell>
        <mxCell id="e5oVYmnUQoA4widtPBJj-36" value="" style="endArrow=none;html=1;rounded=0;exitX=0.5;exitY=0;exitDx=0;exitDy=0;" parent="1" source="e5oVYmnUQoA4widtPBJj-5" edge="1">
          <mxGeometry width="50" height="50" relative="1" as="geometry">
            <mxPoint x="280" y="310" as="sourcePoint" />
            <mxPoint x="110" y="80" as="targetPoint" />
            <Array as="points">
              <mxPoint x="110" y="100" />
            </Array>
          </mxGeometry>
        </mxCell>
        <mxCell id="e5oVYmnUQoA4widtPBJj-38" value="Doubt" style="rounded=0;whiteSpace=wrap;html=1;" parent="1" vertex="1">
          <mxGeometry x="555" y="170" width="50" height="30" as="geometry" />
        </mxCell>
        <mxCell id="e5oVYmnUQoA4widtPBJj-41" value="send" style="rhombus;whiteSpace=wrap;html=1;rotation=0;" parent="1" vertex="1">
          <mxGeometry x="547.8199999999999" y="120.17" width="64.35" height="39.83" as="geometry" />
        </mxCell>
        <mxCell id="e5oVYmnUQoA4widtPBJj-42" value="View" style="rhombus;whiteSpace=wrap;html=1;rotation=0;" parent="1" vertex="1">
          <mxGeometry x="460" y="167.5" width="50" height="35" as="geometry" />
        </mxCell>
        <mxCell id="e5oVYmnUQoA4widtPBJj-43" value="" style="endArrow=none;html=1;rounded=0;entryX=0;entryY=0.5;entryDx=0;entryDy=0;exitX=1;exitY=0.5;exitDx=0;exitDy=0;" parent="1" source="e5oVYmnUQoA4widtPBJj-10" target="e5oVYmnUQoA4widtPBJj-42" edge="1">
          <mxGeometry width="50" height="50" relative="1" as="geometry">
            <mxPoint x="280" y="310" as="sourcePoint" />
            <mxPoint x="330" y="260" as="targetPoint" />
          </mxGeometry>
        </mxCell>
        <mxCell id="e5oVYmnUQoA4widtPBJj-44" value="" style="endArrow=none;html=1;rounded=0;entryX=0;entryY=0.5;entryDx=0;entryDy=0;exitX=1;exitY=0.5;exitDx=0;exitDy=0;" parent="1" source="e5oVYmnUQoA4widtPBJj-42" target="e5oVYmnUQoA4widtPBJj-38" edge="1">
          <mxGeometry width="50" height="50" relative="1" as="geometry">
            <mxPoint x="280" y="310" as="sourcePoint" />
            <mxPoint x="330" y="260" as="targetPoint" />
          </mxGeometry>
        </mxCell>
        <mxCell id="e5oVYmnUQoA4widtPBJj-45" value="" style="endArrow=none;html=1;rounded=0;entryX=0.5;entryY=1;entryDx=0;entryDy=0;exitX=0.5;exitY=0;exitDx=0;exitDy=0;" parent="1" source="e5oVYmnUQoA4widtPBJj-41" target="e5oVYmnUQoA4widtPBJj-26" edge="1">
          <mxGeometry width="50" height="50" relative="1" as="geometry">
            <mxPoint x="490" y="110" as="sourcePoint" />
            <mxPoint x="330" y="260" as="targetPoint" />
            <Array as="points">
              <mxPoint x="580" y="100" />
              <mxPoint x="680" y="100" />
            </Array>
          </mxGeometry>
        </mxCell>
        <mxCell id="e5oVYmnUQoA4widtPBJj-49" value="" style="endArrow=none;html=1;rounded=0;entryX=0.5;entryY=1;entryDx=0;entryDy=0;exitX=0.5;exitY=0;exitDx=0;exitDy=0;" parent="1" source="e5oVYmnUQoA4widtPBJj-38" target="e5oVYmnUQoA4widtPBJj-41" edge="1">
          <mxGeometry width="50" height="50" relative="1" as="geometry">
            <mxPoint x="360" y="390" as="sourcePoint" />
            <mxPoint x="410" y="340" as="targetPoint" />
          </mxGeometry>
        </mxCell>
        <mxCell id="e5oVYmnUQoA4widtPBJj-50" value="Complaint" style="rounded=0;whiteSpace=wrap;html=1;" parent="1" vertex="1">
          <mxGeometry x="370" y="565" width="70" height="30" as="geometry" />
        </mxCell>
        <mxCell id="e5oVYmnUQoA4widtPBJj-51" value="&lt;u&gt;id&lt;/u&gt;" style="ellipse;whiteSpace=wrap;html=1;" parent="1" vertex="1">
          <mxGeometry x="260" y="535" width="40" height="30" as="geometry" />
        </mxCell>
        <mxCell id="e5oVYmnUQoA4widtPBJj-52" value="user_id" style="ellipse;whiteSpace=wrap;html=1;" parent="1" vertex="1">
          <mxGeometry x="310" y="517.5" width="50" height="40" as="geometry" />
        </mxCell>
        <mxCell id="e5oVYmnUQoA4widtPBJj-53" value="Complaint" style="ellipse;whiteSpace=wrap;html=1;" parent="1" vertex="1">
          <mxGeometry x="370" y="510" width="70" height="40" as="geometry" />
        </mxCell>
        <mxCell id="e5oVYmnUQoA4widtPBJj-54" value="reply" style="ellipse;whiteSpace=wrap;html=1;" parent="1" vertex="1">
          <mxGeometry x="520" y="535" width="50" height="30" as="geometry" />
        </mxCell>
        <mxCell id="e5oVYmnUQoA4widtPBJj-55" value="" style="endArrow=none;html=1;rounded=0;entryX=1;entryY=1;entryDx=0;entryDy=0;exitX=0;exitY=0.25;exitDx=0;exitDy=0;" parent="1" source="e5oVYmnUQoA4widtPBJj-50" target="e5oVYmnUQoA4widtPBJj-51" edge="1">
          <mxGeometry width="50" height="50" relative="1" as="geometry">
            <mxPoint x="280" y="310" as="sourcePoint" />
            <mxPoint x="330" y="260" as="targetPoint" />
          </mxGeometry>
        </mxCell>
        <mxCell id="e5oVYmnUQoA4widtPBJj-56" value="" style="endArrow=none;html=1;rounded=0;entryX=1;entryY=1;entryDx=0;entryDy=0;exitX=0.25;exitY=0;exitDx=0;exitDy=0;" parent="1" source="e5oVYmnUQoA4widtPBJj-50" target="e5oVYmnUQoA4widtPBJj-52" edge="1">
          <mxGeometry width="50" height="50" relative="1" as="geometry">
            <mxPoint x="280" y="310" as="sourcePoint" />
            <mxPoint x="330" y="260" as="targetPoint" />
          </mxGeometry>
        </mxCell>
        <mxCell id="e5oVYmnUQoA4widtPBJj-57" value="" style="endArrow=none;html=1;rounded=0;exitX=0.5;exitY=0;exitDx=0;exitDy=0;entryX=0.5;entryY=1;entryDx=0;entryDy=0;" parent="1" source="e5oVYmnUQoA4widtPBJj-50" target="e5oVYmnUQoA4widtPBJj-53" edge="1">
          <mxGeometry width="50" height="50" relative="1" as="geometry">
            <mxPoint x="280" y="310" as="sourcePoint" />
            <mxPoint x="380" y="550" as="targetPoint" />
          </mxGeometry>
        </mxCell>
        <mxCell id="e5oVYmnUQoA4widtPBJj-58" value="" style="endArrow=none;html=1;rounded=0;entryX=0;entryY=0.5;entryDx=0;entryDy=0;exitX=1;exitY=0;exitDx=0;exitDy=0;" parent="1" source="e5oVYmnUQoA4widtPBJj-50" target="e5oVYmnUQoA4widtPBJj-54" edge="1">
          <mxGeometry width="50" height="50" relative="1" as="geometry">
            <mxPoint x="280" y="310" as="sourcePoint" />
            <mxPoint x="330" y="260" as="targetPoint" />
          </mxGeometry>
        </mxCell>
        <mxCell id="fyWzcG6_L9xURKWOEm6A-1" value="Tips" style="rounded=0;whiteSpace=wrap;html=1;" parent="1" vertex="1">
          <mxGeometry x="455" y="280" width="45" height="30" as="geometry" />
        </mxCell>
        <mxCell id="fyWzcG6_L9xURKWOEm6A-2" value="View" style="rhombus;whiteSpace=wrap;html=1;" parent="1" vertex="1">
          <mxGeometry x="240" y="480" width="60" height="40" as="geometry" />
        </mxCell>
        <mxCell id="fyWzcG6_L9xURKWOEm6A-4" value="Notification" style="rounded=0;whiteSpace=wrap;html=1;" parent="1" vertex="1">
          <mxGeometry x="135" y="485" width="70" height="30" as="geometry" />
        </mxCell>
        <mxCell id="fyWzcG6_L9xURKWOEm6A-5" value="&lt;u&gt;id&lt;/u&gt;" style="ellipse;whiteSpace=wrap;html=1;" parent="1" vertex="1">
          <mxGeometry x="70" y="450" width="40" height="20" as="geometry" />
        </mxCell>
        <mxCell id="fyWzcG6_L9xURKWOEm6A-6" value="notification" style="ellipse;whiteSpace=wrap;html=1;" parent="1" vertex="1">
          <mxGeometry x="85" y="410" width="70" height="30" as="geometry" />
        </mxCell>
        <mxCell id="fyWzcG6_L9xURKWOEm6A-8" value="" style="endArrow=none;html=1;rounded=0;entryX=0;entryY=0.5;entryDx=0;entryDy=0;exitX=1;exitY=0.5;exitDx=0;exitDy=0;" parent="1" source="fyWzcG6_L9xURKWOEm6A-4" target="fyWzcG6_L9xURKWOEm6A-2" edge="1">
          <mxGeometry width="50" height="50" relative="1" as="geometry">
            <mxPoint x="270" y="380" as="sourcePoint" />
            <mxPoint x="320" y="330" as="targetPoint" />
          </mxGeometry>
        </mxCell>
        <mxCell id="fyWzcG6_L9xURKWOEm6A-9" value="" style="endArrow=none;html=1;rounded=0;entryX=0.5;entryY=1;entryDx=0;entryDy=0;exitX=0.25;exitY=0;exitDx=0;exitDy=0;" parent="1" source="fyWzcG6_L9xURKWOEm6A-4" target="fyWzcG6_L9xURKWOEm6A-5" edge="1">
          <mxGeometry width="50" height="50" relative="1" as="geometry">
            <mxPoint x="90" y="380" as="sourcePoint" />
            <mxPoint x="140" y="330" as="targetPoint" />
          </mxGeometry>
        </mxCell>
        <mxCell id="fyWzcG6_L9xURKWOEm6A-10" value="" style="endArrow=none;html=1;rounded=0;entryX=0.5;entryY=1;entryDx=0;entryDy=0;exitX=0.5;exitY=0;exitDx=0;exitDy=0;" parent="1" source="fyWzcG6_L9xURKWOEm6A-4" target="fyWzcG6_L9xURKWOEm6A-6" edge="1">
          <mxGeometry width="50" height="50" relative="1" as="geometry">
            <mxPoint x="270" y="380" as="sourcePoint" />
            <mxPoint x="320" y="330" as="targetPoint" />
          </mxGeometry>
        </mxCell>
        <mxCell id="fyWzcG6_L9xURKWOEm6A-11" value="add" style="rhombus;whiteSpace=wrap;html=1;" parent="1" vertex="1">
          <mxGeometry x="370" y="275" width="50" height="40" as="geometry" />
        </mxCell>
        <mxCell id="fyWzcG6_L9xURKWOEm6A-12" value="" style="endArrow=none;html=1;rounded=0;exitX=0.75;exitY=1;exitDx=0;exitDy=0;entryX=0;entryY=0.5;entryDx=0;entryDy=0;" parent="1" source="e5oVYmnUQoA4widtPBJj-10" target="fyWzcG6_L9xURKWOEm6A-11" edge="1">
          <mxGeometry width="50" height="50" relative="1" as="geometry">
            <mxPoint x="400" y="310" as="sourcePoint" />
            <mxPoint x="450" y="260" as="targetPoint" />
            <Array as="points">
              <mxPoint x="325" y="295" />
            </Array>
          </mxGeometry>
        </mxCell>
        <mxCell id="fyWzcG6_L9xURKWOEm6A-13" value="" style="endArrow=none;html=1;rounded=0;entryX=0;entryY=0.5;entryDx=0;entryDy=0;exitX=1;exitY=0.5;exitDx=0;exitDy=0;" parent="1" source="fyWzcG6_L9xURKWOEm6A-11" target="fyWzcG6_L9xURKWOEm6A-1" edge="1">
          <mxGeometry width="50" height="50" relative="1" as="geometry">
            <mxPoint x="400" y="310" as="sourcePoint" />
            <mxPoint x="450" y="260" as="targetPoint" />
            <Array as="points" />
          </mxGeometry>
        </mxCell>
        <mxCell id="fyWzcG6_L9xURKWOEm6A-14" value="" style="endArrow=none;html=1;rounded=0;exitX=0;exitY=0.5;exitDx=0;exitDy=0;entryX=0;entryY=1;entryDx=0;entryDy=0;" parent="1" source="AoXDjsUikcWKZWftnqkL-39" target="e5oVYmnUQoA4widtPBJj-1" edge="1">
          <mxGeometry width="50" height="50" relative="1" as="geometry">
            <mxPoint x="90" y="370" as="sourcePoint" />
            <mxPoint x="50" y="100" as="targetPoint" />
            <Array as="points">
              <mxPoint x="50" y="500" />
            </Array>
          </mxGeometry>
        </mxCell>
        <mxCell id="fyWzcG6_L9xURKWOEm6A-15" value="View" style="rhombus;whiteSpace=wrap;html=1;" parent="1" vertex="1">
          <mxGeometry x="160" y="557.5" width="50" height="40" as="geometry" />
        </mxCell>
        <mxCell id="fyWzcG6_L9xURKWOEm6A-16" value="" style="endArrow=none;html=1;rounded=0;entryX=0;entryY=0.5;entryDx=0;entryDy=0;exitX=1;exitY=0.5;exitDx=0;exitDy=0;" parent="1" source="fyWzcG6_L9xURKWOEm6A-15" target="e5oVYmnUQoA4widtPBJj-50" edge="1">
          <mxGeometry width="50" height="50" relative="1" as="geometry">
            <mxPoint x="400" y="310" as="sourcePoint" />
            <mxPoint x="450" y="260" as="targetPoint" />
            <Array as="points" />
          </mxGeometry>
        </mxCell>
        <mxCell id="fyWzcG6_L9xURKWOEm6A-17" value="" style="endArrow=none;html=1;rounded=0;exitX=0;exitY=0.5;exitDx=0;exitDy=0;entryX=0;entryY=0.5;entryDx=0;entryDy=0;" parent="1" source="fyWzcG6_L9xURKWOEm6A-15" edge="1" target="e5oVYmnUQoA4widtPBJj-1">
          <mxGeometry width="50" height="50" relative="1" as="geometry">
            <mxPoint x="400" y="310" as="sourcePoint" />
            <mxPoint x="50" y="80" as="targetPoint" />
            <Array as="points">
              <mxPoint x="20" y="580" />
              <mxPoint x="20" y="65" />
            </Array>
          </mxGeometry>
        </mxCell>
        <mxCell id="fyWzcG6_L9xURKWOEm6A-18" value="Send" style="rhombus;whiteSpace=wrap;html=1;" parent="1" vertex="1">
          <mxGeometry x="598.75" y="560" width="60" height="35" as="geometry" />
        </mxCell>
        <mxCell id="fyWzcG6_L9xURKWOEm6A-19" value="" style="endArrow=none;html=1;rounded=0;entryX=0;entryY=0.5;entryDx=0;entryDy=0;exitX=1;exitY=0.5;exitDx=0;exitDy=0;" parent="1" source="e5oVYmnUQoA4widtPBJj-50" target="fyWzcG6_L9xURKWOEm6A-18" edge="1">
          <mxGeometry width="50" height="50" relative="1" as="geometry">
            <mxPoint x="400" y="310" as="sourcePoint" />
            <mxPoint x="450" y="260" as="targetPoint" />
          </mxGeometry>
        </mxCell>
        <mxCell id="fyWzcG6_L9xURKWOEm6A-20" value="" style="endArrow=none;html=1;rounded=0;exitX=1;exitY=0.5;exitDx=0;exitDy=0;entryX=1;entryY=0;entryDx=0;entryDy=0;" parent="1" source="fyWzcG6_L9xURKWOEm6A-18" target="e5oVYmnUQoA4widtPBJj-26" edge="1">
          <mxGeometry width="50" height="50" relative="1" as="geometry">
            <mxPoint x="400" y="310" as="sourcePoint" />
            <mxPoint x="520" y="100" as="targetPoint" />
            <Array as="points">
              <mxPoint x="800" y="580" />
              <mxPoint x="800" y="55" />
            </Array>
          </mxGeometry>
        </mxCell>
        <mxCell id="fyWzcG6_L9xURKWOEm6A-28" value="Prediction reslt" style="rounded=0;whiteSpace=wrap;html=1;" parent="1" vertex="1">
          <mxGeometry x="498.42" y="367.5" width="87.5" height="22.5" as="geometry" />
        </mxCell>
        <mxCell id="fyWzcG6_L9xURKWOEm6A-30" value="Suggest" style="rhombus;whiteSpace=wrap;html=1;" parent="1" vertex="1">
          <mxGeometry x="640" y="358.75" width="65" height="36.25" as="geometry" />
        </mxCell>
        <mxCell id="fyWzcG6_L9xURKWOEm6A-34" value="View" style="rhombus;whiteSpace=wrap;html=1;" parent="1" vertex="1">
          <mxGeometry x="595" y="277.5" width="47.5" height="35" as="geometry" />
        </mxCell>
        <mxCell id="fyWzcG6_L9xURKWOEm6A-35" value="predict" style="rhombus;whiteSpace=wrap;html=1;" parent="1" vertex="1">
          <mxGeometry x="470" y="446.88" width="62.82" height="46.25" as="geometry" />
        </mxCell>
        <mxCell id="fyWzcG6_L9xURKWOEm6A-39" value="" style="endArrow=none;html=1;rounded=0;exitX=1;exitY=0.5;exitDx=0;exitDy=0;entryX=1;entryY=0.5;entryDx=0;entryDy=0;" parent="1" source="e5oVYmnUQoA4widtPBJj-26" edge="1" target="e5oVYmnUQoA4widtPBJj-26">
          <mxGeometry width="50" height="50" relative="1" as="geometry">
            <mxPoint x="400" y="330" as="sourcePoint" />
            <mxPoint x="520" y="90" as="targetPoint" />
            <Array as="points" />
          </mxGeometry>
        </mxCell>
        <mxCell id="fyWzcG6_L9xURKWOEm6A-44" value="" style="endArrow=none;html=1;rounded=0;entryX=1;entryY=0.5;entryDx=0;entryDy=0;exitX=1;exitY=0.75;exitDx=0;exitDy=0;" parent="1" source="e5oVYmnUQoA4widtPBJj-26" target="fyWzcG6_L9xURKWOEm6A-30" edge="1">
          <mxGeometry width="50" height="50" relative="1" as="geometry">
            <mxPoint x="370" y="420" as="sourcePoint" />
            <mxPoint x="-140" y="320" as="targetPoint" />
            <Array as="points">
              <mxPoint x="770" y="78" />
              <mxPoint x="770" y="377" />
            </Array>
          </mxGeometry>
        </mxCell>
        <mxCell id="fyWzcG6_L9xURKWOEm6A-45" value="" style="endArrow=none;html=1;rounded=0;exitX=0.5;exitY=1;exitDx=0;exitDy=0;entryX=0;entryY=0.5;entryDx=0;entryDy=0;" parent="1" source="e5oVYmnUQoA4widtPBJj-10" target="AoXDjsUikcWKZWftnqkL-81" edge="1">
          <mxGeometry width="50" height="50" relative="1" as="geometry">
            <mxPoint x="370" y="340" as="sourcePoint" />
            <mxPoint x="190" y="730" as="targetPoint" />
            <Array as="points">
              <mxPoint x="310" y="340" />
            </Array>
          </mxGeometry>
        </mxCell>
        <mxCell id="Wvopbo3fsNnhGRtY6t6F-2" value="Result" style="rounded=0;whiteSpace=wrap;html=1;" parent="1" vertex="1">
          <mxGeometry x="360" y="458.13" width="70" height="23.75" as="geometry" />
        </mxCell>
        <mxCell id="Wvopbo3fsNnhGRtY6t6F-6" value="has" style="rhombus;whiteSpace=wrap;html=1;" parent="1" vertex="1">
          <mxGeometry x="710" y="450" width="45" height="40" as="geometry" />
        </mxCell>
        <mxCell id="Wvopbo3fsNnhGRtY6t6F-7" value="" style="endArrow=none;html=1;rounded=0;entryX=0;entryY=0.5;entryDx=0;entryDy=0;exitX=1;exitY=0.5;exitDx=0;exitDy=0;" parent="1" source="AoXDjsUikcWKZWftnqkL-63" target="Wvopbo3fsNnhGRtY6t6F-6" edge="1">
          <mxGeometry width="50" height="50" relative="1" as="geometry">
            <mxPoint x="400" y="460" as="sourcePoint" />
            <mxPoint x="450" y="410" as="targetPoint" />
          </mxGeometry>
        </mxCell>
        <mxCell id="Wvopbo3fsNnhGRtY6t6F-8" value="" style="endArrow=none;html=1;rounded=0;exitX=1;exitY=0.5;exitDx=0;exitDy=0;entryX=1;entryY=0.5;entryDx=0;entryDy=0;" parent="1" source="Wvopbo3fsNnhGRtY6t6F-6" edge="1" target="e5oVYmnUQoA4widtPBJj-26">
          <mxGeometry width="50" height="50" relative="1" as="geometry">
            <mxPoint x="400" y="360" as="sourcePoint" />
            <mxPoint x="710" y="70" as="targetPoint" />
            <Array as="points">
              <mxPoint x="780" y="470" />
              <mxPoint x="780" y="70" />
            </Array>
          </mxGeometry>
        </mxCell>
        <mxCell id="Wvopbo3fsNnhGRtY6t6F-12" value="" style="endArrow=none;html=1;rounded=0;entryX=0.5;entryY=1;entryDx=0;entryDy=0;exitX=0.5;exitY=0;exitDx=0;exitDy=0;" parent="1" source="e5oVYmnUQoA4widtPBJj-1" target="e5oVYmnUQoA4widtPBJj-3" edge="1">
          <mxGeometry width="50" height="50" relative="1" as="geometry">
            <mxPoint x="400" y="340" as="sourcePoint" />
            <mxPoint x="450" y="290" as="targetPoint" />
          </mxGeometry>
        </mxCell>
        <mxCell id="Wvopbo3fsNnhGRtY6t6F-14" value="&lt;u&gt;id&lt;/u&gt;" style="ellipse;whiteSpace=wrap;html=1;" parent="1" vertex="1">
          <mxGeometry x="680" y="110" width="55" height="30" as="geometry" />
        </mxCell>
        <mxCell id="Wvopbo3fsNnhGRtY6t6F-15" value="doubt" style="ellipse;whiteSpace=wrap;html=1;" parent="1" vertex="1">
          <mxGeometry x="642.5" y="140" width="57.5" height="30" as="geometry" />
        </mxCell>
        <mxCell id="Wvopbo3fsNnhGRtY6t6F-16" value="user_id" style="ellipse;whiteSpace=wrap;html=1;" parent="1" vertex="1">
          <mxGeometry x="692.5" y="160" width="50" height="40" as="geometry" />
        </mxCell>
        <mxCell id="Wvopbo3fsNnhGRtY6t6F-20" value="expert_id" style="ellipse;whiteSpace=wrap;html=1;" parent="1" vertex="1">
          <mxGeometry x="672.5" y="202.5" width="70" height="35" as="geometry" />
        </mxCell>
        <mxCell id="Wvopbo3fsNnhGRtY6t6F-21" value="date" style="ellipse;whiteSpace=wrap;html=1;" parent="1" vertex="1">
          <mxGeometry x="658.75" y="237.5" width="40" height="30" as="geometry" />
        </mxCell>
        <mxCell id="Wvopbo3fsNnhGRtY6t6F-30" value="login_id" style="ellipse;whiteSpace=wrap;html=1;" parent="1" vertex="1">
          <mxGeometry x="425" y="-30" width="70" height="40" as="geometry" />
        </mxCell>
        <mxCell id="Wvopbo3fsNnhGRtY6t6F-31" value="" style="endArrow=none;html=1;rounded=0;entryX=0.5;entryY=1;entryDx=0;entryDy=0;exitX=0.25;exitY=0;exitDx=0;exitDy=0;" parent="1" source="e5oVYmnUQoA4widtPBJj-26" target="Wvopbo3fsNnhGRtY6t6F-30" edge="1">
          <mxGeometry width="50" height="50" relative="1" as="geometry">
            <mxPoint x="390" y="360" as="sourcePoint" />
            <mxPoint x="440" y="310" as="targetPoint" />
          </mxGeometry>
        </mxCell>
        <mxCell id="Wvopbo3fsNnhGRtY6t6F-33" value="" style="endArrow=none;html=1;rounded=0;exitX=0.75;exitY=0;exitDx=0;exitDy=0;entryX=0;entryY=0.5;entryDx=0;entryDy=0;" parent="1" source="e5oVYmnUQoA4widtPBJj-38" target="Wvopbo3fsNnhGRtY6t6F-14" edge="1">
          <mxGeometry width="50" height="50" relative="1" as="geometry">
            <mxPoint x="502.5" y="170" as="sourcePoint" />
            <mxPoint x="552.5" y="120" as="targetPoint" />
          </mxGeometry>
        </mxCell>
        <mxCell id="Wvopbo3fsNnhGRtY6t6F-36" value="" style="endArrow=none;html=1;rounded=0;exitX=1;exitY=0.25;exitDx=0;exitDy=0;entryX=0.043;entryY=0.8;entryDx=0;entryDy=0;entryPerimeter=0;" parent="1" source="e5oVYmnUQoA4widtPBJj-38" target="Wvopbo3fsNnhGRtY6t6F-15" edge="1">
          <mxGeometry width="50" height="50" relative="1" as="geometry">
            <mxPoint x="505" y="220" as="sourcePoint" />
            <mxPoint x="560" y="160" as="targetPoint" />
          </mxGeometry>
        </mxCell>
        <mxCell id="Wvopbo3fsNnhGRtY6t6F-37" value="" style="endArrow=none;html=1;rounded=0;entryX=0;entryY=0.5;entryDx=0;entryDy=0;exitX=1;exitY=0.5;exitDx=0;exitDy=0;" parent="1" source="e5oVYmnUQoA4widtPBJj-38" target="Wvopbo3fsNnhGRtY6t6F-16" edge="1">
          <mxGeometry width="50" height="50" relative="1" as="geometry">
            <mxPoint x="520" y="190" as="sourcePoint" />
            <mxPoint x="440" y="310" as="targetPoint" />
          </mxGeometry>
        </mxCell>
        <mxCell id="Wvopbo3fsNnhGRtY6t6F-38" value="" style="endArrow=none;html=1;rounded=0;entryX=0;entryY=0.5;entryDx=0;entryDy=0;exitX=1;exitY=0.5;exitDx=0;exitDy=0;" parent="1" source="e5oVYmnUQoA4widtPBJj-38" target="Wvopbo3fsNnhGRtY6t6F-20" edge="1">
          <mxGeometry width="50" height="50" relative="1" as="geometry">
            <mxPoint x="610" y="190" as="sourcePoint" />
            <mxPoint x="560" y="250" as="targetPoint" />
          </mxGeometry>
        </mxCell>
        <mxCell id="Wvopbo3fsNnhGRtY6t6F-39" value="" style="endArrow=none;html=1;rounded=0;entryX=0;entryY=0;entryDx=0;entryDy=0;exitX=1;exitY=0.75;exitDx=0;exitDy=0;" parent="1" source="e5oVYmnUQoA4widtPBJj-38" target="Wvopbo3fsNnhGRtY6t6F-21" edge="1">
          <mxGeometry width="50" height="50" relative="1" as="geometry">
            <mxPoint x="485" y="290" as="sourcePoint" />
            <mxPoint x="535" y="240" as="targetPoint" />
          </mxGeometry>
        </mxCell>
        <mxCell id="Wvopbo3fsNnhGRtY6t6F-61" value="&lt;u&gt;id&lt;/u&gt;" style="ellipse;whiteSpace=wrap;html=1;" parent="1" vertex="1">
          <mxGeometry x="360" y="245" width="40" height="30" as="geometry" />
        </mxCell>
        <mxCell id="Wvopbo3fsNnhGRtY6t6F-62" value="expert_id" style="ellipse;whiteSpace=wrap;html=1;" parent="1" vertex="1">
          <mxGeometry x="405" y="232.5" width="55" height="40" as="geometry" />
        </mxCell>
        <mxCell id="Wvopbo3fsNnhGRtY6t6F-63" value="tips" style="ellipse;whiteSpace=wrap;html=1;" parent="1" vertex="1">
          <mxGeometry x="460" y="220" width="40" height="30" as="geometry" />
        </mxCell>
        <mxCell id="Wvopbo3fsNnhGRtY6t6F-64" value="date" style="ellipse;whiteSpace=wrap;html=1;" parent="1" vertex="1">
          <mxGeometry x="540" y="245" width="40" height="30" as="geometry" />
        </mxCell>
        <mxCell id="Wvopbo3fsNnhGRtY6t6F-68" value="" style="endArrow=none;html=1;rounded=0;exitX=1;exitY=1;exitDx=0;exitDy=0;entryX=0;entryY=0;entryDx=0;entryDy=0;" parent="1" source="Wvopbo3fsNnhGRtY6t6F-61" target="fyWzcG6_L9xURKWOEm6A-1" edge="1">
          <mxGeometry width="50" height="50" relative="1" as="geometry">
            <mxPoint x="387.5" y="500" as="sourcePoint" />
            <mxPoint x="450" y="280" as="targetPoint" />
          </mxGeometry>
        </mxCell>
        <mxCell id="Wvopbo3fsNnhGRtY6t6F-69" value="" style="endArrow=none;html=1;rounded=0;entryX=0.25;entryY=0;entryDx=0;entryDy=0;exitX=1;exitY=1;exitDx=0;exitDy=0;" parent="1" source="Wvopbo3fsNnhGRtY6t6F-62" target="fyWzcG6_L9xURKWOEm6A-1" edge="1">
          <mxGeometry width="50" height="50" relative="1" as="geometry">
            <mxPoint x="450" y="260" as="sourcePoint" />
            <mxPoint x="440" y="310" as="targetPoint" />
          </mxGeometry>
        </mxCell>
        <mxCell id="Wvopbo3fsNnhGRtY6t6F-70" value="" style="endArrow=none;html=1;rounded=0;exitX=0.5;exitY=0;exitDx=0;exitDy=0;entryX=0.5;entryY=1;entryDx=0;entryDy=0;" parent="1" source="fyWzcG6_L9xURKWOEm6A-1" target="Wvopbo3fsNnhGRtY6t6F-63" edge="1">
          <mxGeometry width="50" height="50" relative="1" as="geometry">
            <mxPoint x="390" y="360" as="sourcePoint" />
            <mxPoint x="510" y="240" as="targetPoint" />
          </mxGeometry>
        </mxCell>
        <mxCell id="Wvopbo3fsNnhGRtY6t6F-71" value="" style="endArrow=none;html=1;rounded=0;exitX=0;exitY=0.5;exitDx=0;exitDy=0;entryX=1;entryY=0;entryDx=0;entryDy=0;" parent="1" source="Wvopbo3fsNnhGRtY6t6F-64" target="fyWzcG6_L9xURKWOEm6A-1" edge="1">
          <mxGeometry width="50" height="50" relative="1" as="geometry">
            <mxPoint x="390" y="360" as="sourcePoint" />
            <mxPoint x="440" y="310" as="targetPoint" />
          </mxGeometry>
        </mxCell>
        <mxCell id="Wvopbo3fsNnhGRtY6t6F-90" value="&lt;u&gt;id&lt;/u&gt;" style="ellipse;whiteSpace=wrap;html=1;" parent="1" vertex="1">
          <mxGeometry x="416.41" y="337.5" width="50" height="30" as="geometry" />
        </mxCell>
        <mxCell id="Wvopbo3fsNnhGRtY6t6F-91" value="user_id" style="ellipse;whiteSpace=wrap;html=1;" parent="1" vertex="1">
          <mxGeometry x="450" y="315" width="70" height="30" as="geometry" />
        </mxCell>
        <mxCell id="Wvopbo3fsNnhGRtY6t6F-92" value="expert_id" style="ellipse;whiteSpace=wrap;html=1;" parent="1" vertex="1">
          <mxGeometry x="515" y="300" width="80" height="30" as="geometry" />
        </mxCell>
        <mxCell id="Wvopbo3fsNnhGRtY6t6F-93" value="" style="endArrow=none;html=1;rounded=0;exitX=0;exitY=0;exitDx=0;exitDy=0;entryX=1;entryY=1;entryDx=0;entryDy=0;" parent="1" source="fyWzcG6_L9xURKWOEm6A-28" target="Wvopbo3fsNnhGRtY6t6F-90" edge="1">
          <mxGeometry width="50" height="50" relative="1" as="geometry">
            <mxPoint x="390" y="390" as="sourcePoint" />
            <mxPoint x="440" y="340" as="targetPoint" />
          </mxGeometry>
        </mxCell>
        <mxCell id="Wvopbo3fsNnhGRtY6t6F-94" value="" style="endArrow=none;html=1;rounded=0;exitX=0.39;exitY=-0.061;exitDx=0;exitDy=0;exitPerimeter=0;entryX=0.657;entryY=1.067;entryDx=0;entryDy=0;entryPerimeter=0;" parent="1" source="fyWzcG6_L9xURKWOEm6A-28" target="Wvopbo3fsNnhGRtY6t6F-91" edge="1">
          <mxGeometry width="50" height="50" relative="1" as="geometry">
            <mxPoint x="390" y="390" as="sourcePoint" />
            <mxPoint x="440" y="340" as="targetPoint" />
          </mxGeometry>
        </mxCell>
        <mxCell id="Wvopbo3fsNnhGRtY6t6F-95" value="" style="endArrow=none;html=1;rounded=0;exitX=0.5;exitY=0;exitDx=0;exitDy=0;entryX=0.375;entryY=0.958;entryDx=0;entryDy=0;entryPerimeter=0;" parent="1" source="fyWzcG6_L9xURKWOEm6A-28" target="Wvopbo3fsNnhGRtY6t6F-92" edge="1">
          <mxGeometry width="50" height="50" relative="1" as="geometry">
            <mxPoint x="390" y="390" as="sourcePoint" />
            <mxPoint x="440" y="340" as="targetPoint" />
          </mxGeometry>
        </mxCell>
        <mxCell id="Wvopbo3fsNnhGRtY6t6F-96" value="&lt;u&gt;id&lt;/u&gt;" style="ellipse;whiteSpace=wrap;html=1;" parent="1" vertex="1">
          <mxGeometry x="255" y="435" width="45" height="40" as="geometry" />
        </mxCell>
        <mxCell id="Wvopbo3fsNnhGRtY6t6F-97" value="expert_id" style="ellipse;whiteSpace=wrap;html=1;" parent="1" vertex="1">
          <mxGeometry x="275" y="395" width="70" height="40" as="geometry" />
        </mxCell>
        <mxCell id="Wvopbo3fsNnhGRtY6t6F-98" value="result" style="ellipse;whiteSpace=wrap;html=1;" parent="1" vertex="1">
          <mxGeometry x="395" y="405" width="60" height="37.5" as="geometry" />
        </mxCell>
        <mxCell id="Wvopbo3fsNnhGRtY6t6F-99" value="date" style="ellipse;whiteSpace=wrap;html=1;" parent="1" vertex="1">
          <mxGeometry x="460" y="405" width="40" height="35" as="geometry" />
        </mxCell>
        <mxCell id="Wvopbo3fsNnhGRtY6t6F-100" value="" style="endArrow=none;html=1;rounded=0;entryX=0;entryY=1;entryDx=0;entryDy=0;exitX=1;exitY=0;exitDx=0;exitDy=0;" parent="1" target="Wvopbo3fsNnhGRtY6t6F-99" edge="1" source="Wvopbo3fsNnhGRtY6t6F-2">
          <mxGeometry width="50" height="50" relative="1" as="geometry">
            <mxPoint x="610" y="670" as="sourcePoint" />
            <mxPoint x="660" y="620" as="targetPoint" />
          </mxGeometry>
        </mxCell>
        <mxCell id="Wvopbo3fsNnhGRtY6t6F-101" value="" style="endArrow=none;html=1;rounded=0;entryX=0.5;entryY=1;entryDx=0;entryDy=0;exitX=0.5;exitY=0;exitDx=0;exitDy=0;" parent="1" target="Wvopbo3fsNnhGRtY6t6F-98" edge="1" source="Wvopbo3fsNnhGRtY6t6F-2">
          <mxGeometry width="50" height="50" relative="1" as="geometry">
            <mxPoint x="580" y="667.5" as="sourcePoint" />
            <mxPoint x="630" y="617.5" as="targetPoint" />
          </mxGeometry>
        </mxCell>
        <mxCell id="Wvopbo3fsNnhGRtY6t6F-102" value="" style="endArrow=none;html=1;rounded=0;entryX=0.25;entryY=0;entryDx=0;entryDy=0;exitX=0.635;exitY=1.017;exitDx=0;exitDy=0;exitPerimeter=0;" parent="1" source="Wvopbo3fsNnhGRtY6t6F-97" target="Wvopbo3fsNnhGRtY6t6F-2" edge="1">
          <mxGeometry width="50" height="50" relative="1" as="geometry">
            <mxPoint x="540" y="641" as="sourcePoint" />
            <mxPoint x="590" y="591.25" as="targetPoint" />
          </mxGeometry>
        </mxCell>
        <mxCell id="Wvopbo3fsNnhGRtY6t6F-103" value="" style="endArrow=none;html=1;rounded=0;entryX=0;entryY=0.25;entryDx=0;entryDy=0;exitX=1;exitY=0.5;exitDx=0;exitDy=0;" parent="1" source="Wvopbo3fsNnhGRtY6t6F-96" target="Wvopbo3fsNnhGRtY6t6F-2" edge="1">
          <mxGeometry width="50" height="50" relative="1" as="geometry">
            <mxPoint x="445" y="646.25" as="sourcePoint" />
            <mxPoint x="495" y="596.25" as="targetPoint" />
            <Array as="points">
              <mxPoint x="360" y="460" />
            </Array>
          </mxGeometry>
        </mxCell>
        <mxCell id="Wvopbo3fsNnhGRtY6t6F-110" value="" style="endArrow=none;dashed=1;html=1;dashPattern=1 3;strokeWidth=2;rounded=0;" parent="1" edge="1">
          <mxGeometry width="50" height="50" relative="1" as="geometry">
            <mxPoint x="445" y="2.842170943040401e-14" as="sourcePoint" />
            <mxPoint x="485" y="2.842170943040401e-14" as="targetPoint" />
            <Array as="points">
              <mxPoint x="465" y="2.842170943040401e-14" />
            </Array>
          </mxGeometry>
        </mxCell>
        <mxCell id="e5oVYmnUQoA4widtPBJj-14" value="login_id" style="ellipse;whiteSpace=wrap;html=1;" parent="1" vertex="1">
          <mxGeometry x="140" y="70" width="70" height="40" as="geometry" />
        </mxCell>
        <mxCell id="Wvopbo3fsNnhGRtY6t6F-115" value="" style="endArrow=none;dashed=1;html=1;dashPattern=1 3;strokeWidth=2;rounded=0;" parent="1" edge="1">
          <mxGeometry width="50" height="50" relative="1" as="geometry">
            <mxPoint x="702.5" y="190" as="sourcePoint" />
            <mxPoint x="732.5" y="190" as="targetPoint" />
          </mxGeometry>
        </mxCell>
        <mxCell id="Wvopbo3fsNnhGRtY6t6F-121" value="" style="endArrow=none;dashed=1;html=1;dashPattern=1 3;strokeWidth=2;rounded=0;" parent="1" edge="1">
          <mxGeometry width="50" height="50" relative="1" as="geometry">
            <mxPoint x="420" y="262.5" as="sourcePoint" />
            <mxPoint x="460" y="262.5" as="targetPoint" />
            <Array as="points">
              <mxPoint x="430" y="263" />
            </Array>
          </mxGeometry>
        </mxCell>
        <mxCell id="Wvopbo3fsNnhGRtY6t6F-125" value="" style="endArrow=none;dashed=1;html=1;dashPattern=1 3;strokeWidth=2;rounded=0;" parent="1" edge="1">
          <mxGeometry width="50" height="50" relative="1" as="geometry">
            <mxPoint x="290" y="424.5000000000001" as="sourcePoint" />
            <mxPoint x="320" y="424.5000000000001" as="targetPoint" />
          </mxGeometry>
        </mxCell>
        <mxCell id="Wvopbo3fsNnhGRtY6t6F-127" value="" style="endArrow=none;dashed=1;html=1;dashPattern=1 3;strokeWidth=2;rounded=0;" parent="1" edge="1">
          <mxGeometry width="50" height="50" relative="1" as="geometry">
            <mxPoint x="165" y="100" as="sourcePoint" />
            <mxPoint x="195" y="100" as="targetPoint" />
            <Array as="points" />
          </mxGeometry>
        </mxCell>
        <mxCell id="AoXDjsUikcWKZWftnqkL-1" value="type" style="ellipse;whiteSpace=wrap;html=1;" vertex="1" parent="1">
          <mxGeometry x="170" y="10" width="60" height="30" as="geometry" />
        </mxCell>
        <mxCell id="AoXDjsUikcWKZWftnqkL-2" value="" style="endArrow=none;html=1;rounded=0;exitX=1;exitY=0;exitDx=0;exitDy=0;entryX=0.033;entryY=0.733;entryDx=0;entryDy=0;entryPerimeter=0;" edge="1" parent="1" source="e5oVYmnUQoA4widtPBJj-1" target="AoXDjsUikcWKZWftnqkL-1">
          <mxGeometry width="50" height="50" relative="1" as="geometry">
            <mxPoint x="400" y="280" as="sourcePoint" />
            <mxPoint x="450" y="230" as="targetPoint" />
          </mxGeometry>
        </mxCell>
        <mxCell id="e5oVYmnUQoA4widtPBJj-26" value="User" style="html=1;dashed=0;whiteSpace=wrap;" parent="1" vertex="1">
          <mxGeometry x="650" y="55" width="60" height="30" as="geometry" />
        </mxCell>
        <mxCell id="AoXDjsUikcWKZWftnqkL-4" value="age" style="ellipse;whiteSpace=wrap;html=1;" vertex="1" parent="1">
          <mxGeometry x="562.17" y="-25" width="50" height="30" as="geometry" />
        </mxCell>
        <mxCell id="AoXDjsUikcWKZWftnqkL-5" value="place" style="ellipse;whiteSpace=wrap;html=1;" vertex="1" parent="1">
          <mxGeometry x="617.5" y="-25" width="60" height="30" as="geometry" />
        </mxCell>
        <mxCell id="AoXDjsUikcWKZWftnqkL-6" value="post" style="ellipse;whiteSpace=wrap;html=1;" vertex="1" parent="1">
          <mxGeometry x="678.75" y="-20" width="50" height="30" as="geometry" />
        </mxCell>
        <mxCell id="AoXDjsUikcWKZWftnqkL-7" value="pin" style="ellipse;whiteSpace=wrap;html=1;" vertex="1" parent="1">
          <mxGeometry x="737.5" y="-30" width="40" height="30" as="geometry" />
        </mxCell>
        <mxCell id="AoXDjsUikcWKZWftnqkL-8" value="email" style="ellipse;whiteSpace=wrap;html=1;" vertex="1" parent="1">
          <mxGeometry x="790" y="-20" width="50" height="30" as="geometry" />
        </mxCell>
        <mxCell id="AoXDjsUikcWKZWftnqkL-10" value="" style="endArrow=none;html=1;rounded=0;entryX=0.64;entryY=1.017;entryDx=0;entryDy=0;entryPerimeter=0;exitX=0.25;exitY=0;exitDx=0;exitDy=0;" edge="1" parent="1" source="e5oVYmnUQoA4widtPBJj-26" target="AoXDjsUikcWKZWftnqkL-4">
          <mxGeometry width="50" height="50" relative="1" as="geometry">
            <mxPoint x="400" y="280" as="sourcePoint" />
            <mxPoint x="450" y="230" as="targetPoint" />
          </mxGeometry>
        </mxCell>
        <mxCell id="AoXDjsUikcWKZWftnqkL-11" value="" style="endArrow=none;html=1;rounded=0;entryX=0.5;entryY=1;entryDx=0;entryDy=0;exitX=0.25;exitY=0;exitDx=0;exitDy=0;" edge="1" parent="1" source="e5oVYmnUQoA4widtPBJj-26" target="AoXDjsUikcWKZWftnqkL-5">
          <mxGeometry width="50" height="50" relative="1" as="geometry">
            <mxPoint x="400" y="280" as="sourcePoint" />
            <mxPoint x="450" y="230" as="targetPoint" />
          </mxGeometry>
        </mxCell>
        <mxCell id="AoXDjsUikcWKZWftnqkL-12" value="" style="endArrow=none;html=1;rounded=0;exitX=0.383;exitY=0;exitDx=0;exitDy=0;exitPerimeter=0;entryX=0.5;entryY=1;entryDx=0;entryDy=0;" edge="1" parent="1" source="e5oVYmnUQoA4widtPBJj-26" target="AoXDjsUikcWKZWftnqkL-6">
          <mxGeometry width="50" height="50" relative="1" as="geometry">
            <mxPoint x="400" y="280" as="sourcePoint" />
            <mxPoint x="690" y="40" as="targetPoint" />
          </mxGeometry>
        </mxCell>
        <mxCell id="AoXDjsUikcWKZWftnqkL-13" value="" style="endArrow=none;html=1;rounded=0;entryX=0.35;entryY=0.917;entryDx=0;entryDy=0;entryPerimeter=0;exitX=0.5;exitY=0;exitDx=0;exitDy=0;" edge="1" parent="1" source="e5oVYmnUQoA4widtPBJj-26" target="AoXDjsUikcWKZWftnqkL-7">
          <mxGeometry width="50" height="50" relative="1" as="geometry">
            <mxPoint x="400" y="280" as="sourcePoint" />
            <mxPoint x="450" y="230" as="targetPoint" />
          </mxGeometry>
        </mxCell>
        <mxCell id="AoXDjsUikcWKZWftnqkL-14" value="" style="endArrow=none;html=1;rounded=0;entryX=0;entryY=1;entryDx=0;entryDy=0;exitX=1;exitY=0;exitDx=0;exitDy=0;" edge="1" parent="1" source="e5oVYmnUQoA4widtPBJj-26" target="AoXDjsUikcWKZWftnqkL-8">
          <mxGeometry width="50" height="50" relative="1" as="geometry">
            <mxPoint x="700" y="70" as="sourcePoint" />
            <mxPoint x="450" y="230" as="targetPoint" />
          </mxGeometry>
        </mxCell>
        <mxCell id="AoXDjsUikcWKZWftnqkL-15" value="lastname" style="ellipse;whiteSpace=wrap;html=1;" vertex="1" parent="1">
          <mxGeometry x="280" y="95" width="70" height="40" as="geometry" />
        </mxCell>
        <mxCell id="AoXDjsUikcWKZWftnqkL-17" value="place" style="ellipse;whiteSpace=wrap;html=1;" vertex="1" parent="1">
          <mxGeometry x="345" y="75" width="80" height="30" as="geometry" />
        </mxCell>
        <mxCell id="AoXDjsUikcWKZWftnqkL-18" value="post" style="ellipse;whiteSpace=wrap;html=1;" vertex="1" parent="1">
          <mxGeometry x="430" y="75" width="50" height="30" as="geometry" />
        </mxCell>
        <mxCell id="AoXDjsUikcWKZWftnqkL-19" value="pin" style="ellipse;whiteSpace=wrap;html=1;" vertex="1" parent="1">
          <mxGeometry x="485" y="75" width="50" height="35" as="geometry" />
        </mxCell>
        <mxCell id="AoXDjsUikcWKZWftnqkL-20" value="email" style="ellipse;whiteSpace=wrap;html=1;" vertex="1" parent="1">
          <mxGeometry x="455" y="125.09" width="50" height="30" as="geometry" />
        </mxCell>
        <mxCell id="AoXDjsUikcWKZWftnqkL-22" value="" style="endArrow=none;html=1;rounded=0;entryX=0.5;entryY=1;entryDx=0;entryDy=0;exitX=0.5;exitY=0;exitDx=0;exitDy=0;" edge="1" parent="1" source="e5oVYmnUQoA4widtPBJj-10" target="AoXDjsUikcWKZWftnqkL-15">
          <mxGeometry width="50" height="50" relative="1" as="geometry">
            <mxPoint x="400" y="160" as="sourcePoint" />
            <mxPoint x="450" y="110" as="targetPoint" />
          </mxGeometry>
        </mxCell>
        <mxCell id="AoXDjsUikcWKZWftnqkL-23" value="" style="endArrow=none;html=1;rounded=0;entryX=0.406;entryY=1;entryDx=0;entryDy=0;entryPerimeter=0;exitX=0.625;exitY=0;exitDx=0;exitDy=0;exitPerimeter=0;" edge="1" parent="1" source="e5oVYmnUQoA4widtPBJj-10" target="AoXDjsUikcWKZWftnqkL-17">
          <mxGeometry width="50" height="50" relative="1" as="geometry">
            <mxPoint x="400" y="160" as="sourcePoint" />
            <mxPoint x="450" y="110" as="targetPoint" />
          </mxGeometry>
        </mxCell>
        <mxCell id="AoXDjsUikcWKZWftnqkL-24" value="" style="endArrow=none;html=1;rounded=0;entryX=0;entryY=1;entryDx=0;entryDy=0;" edge="1" parent="1" target="AoXDjsUikcWKZWftnqkL-18">
          <mxGeometry width="50" height="50" relative="1" as="geometry">
            <mxPoint x="330" y="170" as="sourcePoint" />
            <mxPoint x="450" y="110" as="targetPoint" />
          </mxGeometry>
        </mxCell>
        <mxCell id="AoXDjsUikcWKZWftnqkL-25" value="" style="endArrow=none;html=1;rounded=0;exitX=1;exitY=0;exitDx=0;exitDy=0;entryX=0;entryY=1;entryDx=0;entryDy=0;" edge="1" parent="1" source="e5oVYmnUQoA4widtPBJj-10" target="AoXDjsUikcWKZWftnqkL-19">
          <mxGeometry width="50" height="50" relative="1" as="geometry">
            <mxPoint x="400" y="160" as="sourcePoint" />
            <mxPoint x="450" y="110" as="targetPoint" />
          </mxGeometry>
        </mxCell>
        <mxCell id="AoXDjsUikcWKZWftnqkL-26" value="" style="endArrow=none;html=1;rounded=0;exitX=1;exitY=0.25;exitDx=0;exitDy=0;entryX=0;entryY=1;entryDx=0;entryDy=0;" edge="1" parent="1" source="e5oVYmnUQoA4widtPBJj-10" target="AoXDjsUikcWKZWftnqkL-20">
          <mxGeometry width="50" height="50" relative="1" as="geometry">
            <mxPoint x="400" y="160" as="sourcePoint" />
            <mxPoint x="450" y="110" as="targetPoint" />
          </mxGeometry>
        </mxCell>
        <mxCell id="AoXDjsUikcWKZWftnqkL-27" value="" style="endArrow=none;dashed=1;html=1;dashPattern=1 3;strokeWidth=2;rounded=0;" edge="1" parent="1">
          <mxGeometry width="50" height="50" relative="1" as="geometry">
            <mxPoint x="692.5" y="230" as="sourcePoint" />
            <mxPoint x="732.5" y="230" as="targetPoint" />
            <Array as="points">
              <mxPoint x="712.5" y="230" />
            </Array>
          </mxGeometry>
        </mxCell>
        <mxCell id="AoXDjsUikcWKZWftnqkL-28" value="reply" style="ellipse;whiteSpace=wrap;html=1;" vertex="1" parent="1">
          <mxGeometry x="590" y="220" width="50" height="30" as="geometry" />
        </mxCell>
        <mxCell id="AoXDjsUikcWKZWftnqkL-29" value="" style="endArrow=none;html=1;rounded=0;entryX=1;entryY=1;entryDx=0;entryDy=0;exitX=0.5;exitY=0;exitDx=0;exitDy=0;" edge="1" parent="1" source="AoXDjsUikcWKZWftnqkL-28" target="e5oVYmnUQoA4widtPBJj-38">
          <mxGeometry width="50" height="50" relative="1" as="geometry">
            <mxPoint x="420" y="270" as="sourcePoint" />
            <mxPoint x="470" y="220" as="targetPoint" />
          </mxGeometry>
        </mxCell>
        <mxCell id="AoXDjsUikcWKZWftnqkL-31" value="date" style="ellipse;whiteSpace=wrap;html=1;" vertex="1" parent="1">
          <mxGeometry x="460" y="520" width="40" height="30" as="geometry" />
        </mxCell>
        <mxCell id="AoXDjsUikcWKZWftnqkL-32" value="" style="endArrow=none;html=1;rounded=0;entryX=0;entryY=1;entryDx=0;entryDy=0;exitX=0.75;exitY=0;exitDx=0;exitDy=0;" edge="1" parent="1" source="e5oVYmnUQoA4widtPBJj-50" target="AoXDjsUikcWKZWftnqkL-31">
          <mxGeometry width="50" height="50" relative="1" as="geometry">
            <mxPoint x="420" y="270" as="sourcePoint" />
            <mxPoint x="470" y="220" as="targetPoint" />
          </mxGeometry>
        </mxCell>
        <mxCell id="AoXDjsUikcWKZWftnqkL-35" value="date" style="ellipse;whiteSpace=wrap;html=1;" vertex="1" parent="1">
          <mxGeometry x="202.5" y="420" width="50" height="30" as="geometry" />
        </mxCell>
        <mxCell id="AoXDjsUikcWKZWftnqkL-36" value="" style="endArrow=none;html=1;rounded=0;exitX=0.879;exitY=0;exitDx=0;exitDy=0;exitPerimeter=0;" edge="1" parent="1" source="fyWzcG6_L9xURKWOEm6A-4">
          <mxGeometry width="50" height="50" relative="1" as="geometry">
            <mxPoint x="200" y="480" as="sourcePoint" />
            <mxPoint x="220" y="450" as="targetPoint" />
          </mxGeometry>
        </mxCell>
        <mxCell id="AoXDjsUikcWKZWftnqkL-39" value="add" style="rhombus;whiteSpace=wrap;html=1;" vertex="1" parent="1">
          <mxGeometry x="72.5" y="480" width="50" height="40" as="geometry" />
        </mxCell>
        <mxCell id="AoXDjsUikcWKZWftnqkL-40" value="" style="endArrow=none;html=1;rounded=0;exitX=1;exitY=0.5;exitDx=0;exitDy=0;entryX=0;entryY=0.5;entryDx=0;entryDy=0;" edge="1" parent="1" source="AoXDjsUikcWKZWftnqkL-39" target="fyWzcG6_L9xURKWOEm6A-4">
          <mxGeometry width="50" height="50" relative="1" as="geometry">
            <mxPoint x="420" y="340" as="sourcePoint" />
            <mxPoint x="470" y="290" as="targetPoint" />
          </mxGeometry>
        </mxCell>
        <mxCell id="AoXDjsUikcWKZWftnqkL-42" value="View" style="rhombus;whiteSpace=wrap;html=1;" vertex="1" parent="1">
          <mxGeometry x="145" y="350" width="50" height="40" as="geometry" />
        </mxCell>
        <mxCell id="AoXDjsUikcWKZWftnqkL-43" value="" style="endArrow=none;html=1;rounded=0;entryX=0.5;entryY=1;entryDx=0;entryDy=0;exitX=0.5;exitY=0;exitDx=0;exitDy=0;" edge="1" parent="1" source="fyWzcG6_L9xURKWOEm6A-4" target="AoXDjsUikcWKZWftnqkL-42">
          <mxGeometry width="50" height="50" relative="1" as="geometry">
            <mxPoint x="280" y="360" as="sourcePoint" />
            <mxPoint x="470" y="290" as="targetPoint" />
          </mxGeometry>
        </mxCell>
        <mxCell id="AoXDjsUikcWKZWftnqkL-44" value="" style="endArrow=none;html=1;rounded=0;entryX=0;entryY=1;entryDx=0;entryDy=0;exitX=0.5;exitY=0;exitDx=0;exitDy=0;" edge="1" parent="1" source="AoXDjsUikcWKZWftnqkL-42" target="e5oVYmnUQoA4widtPBJj-10">
          <mxGeometry width="50" height="50" relative="1" as="geometry">
            <mxPoint x="420" y="340" as="sourcePoint" />
            <mxPoint x="470" y="290" as="targetPoint" />
            <Array as="points">
              <mxPoint x="170" y="260" />
              <mxPoint x="280" y="260" />
            </Array>
          </mxGeometry>
        </mxCell>
        <mxCell id="AoXDjsUikcWKZWftnqkL-46" value="" style="endArrow=none;html=1;rounded=0;exitX=1;exitY=0.5;exitDx=0;exitDy=0;entryX=1;entryY=0.25;entryDx=0;entryDy=0;" edge="1" parent="1" source="fyWzcG6_L9xURKWOEm6A-2" target="e5oVYmnUQoA4widtPBJj-26">
          <mxGeometry width="50" height="50" relative="1" as="geometry">
            <mxPoint x="420" y="340" as="sourcePoint" />
            <mxPoint x="710" y="60" as="targetPoint" />
            <Array as="points">
              <mxPoint x="790" y="500" />
              <mxPoint x="790" y="63" />
            </Array>
          </mxGeometry>
        </mxCell>
        <mxCell id="AoXDjsUikcWKZWftnqkL-48" value="details" style="ellipse;whiteSpace=wrap;html=1;" vertex="1" parent="1">
          <mxGeometry x="505" y="220" width="50" height="30" as="geometry" />
        </mxCell>
        <mxCell id="AoXDjsUikcWKZWftnqkL-49" value="" style="endArrow=none;html=1;rounded=0;entryX=0;entryY=1;entryDx=0;entryDy=0;exitX=0.75;exitY=0;exitDx=0;exitDy=0;" edge="1" parent="1" source="fyWzcG6_L9xURKWOEm6A-1" target="AoXDjsUikcWKZWftnqkL-48">
          <mxGeometry width="50" height="50" relative="1" as="geometry">
            <mxPoint x="500" y="280" as="sourcePoint" />
            <mxPoint x="550" y="265" as="targetPoint" />
          </mxGeometry>
        </mxCell>
        <mxCell id="AoXDjsUikcWKZWftnqkL-51" value="" style="endArrow=none;html=1;rounded=0;entryX=0;entryY=0.5;entryDx=0;entryDy=0;exitX=1;exitY=0.5;exitDx=0;exitDy=0;" edge="1" parent="1" source="fyWzcG6_L9xURKWOEm6A-1" target="fyWzcG6_L9xURKWOEm6A-34">
          <mxGeometry width="50" height="50" relative="1" as="geometry">
            <mxPoint x="420" y="340" as="sourcePoint" />
            <mxPoint x="600" y="340" as="targetPoint" />
          </mxGeometry>
        </mxCell>
        <mxCell id="AoXDjsUikcWKZWftnqkL-52" value="" style="endArrow=none;html=1;rounded=0;entryX=1;entryY=0.5;entryDx=0;entryDy=0;exitX=1;exitY=1;exitDx=0;exitDy=0;" edge="1" parent="1" source="e5oVYmnUQoA4widtPBJj-26" target="fyWzcG6_L9xURKWOEm6A-34">
          <mxGeometry width="50" height="50" relative="1" as="geometry">
            <mxPoint x="720" y="78" as="sourcePoint" />
            <mxPoint x="470" y="290" as="targetPoint" />
            <Array as="points">
              <mxPoint x="750" y="85" />
              <mxPoint x="750" y="295" />
            </Array>
          </mxGeometry>
        </mxCell>
        <mxCell id="AoXDjsUikcWKZWftnqkL-55" value="" style="endArrow=none;dashed=1;html=1;dashPattern=1 3;strokeWidth=2;rounded=0;" edge="1" parent="1">
          <mxGeometry width="50" height="50" relative="1" as="geometry">
            <mxPoint x="320" y="550" as="sourcePoint" />
            <mxPoint x="350" y="550" as="targetPoint" />
          </mxGeometry>
        </mxCell>
        <mxCell id="AoXDjsUikcWKZWftnqkL-56" value="predctn" style="ellipse;whiteSpace=wrap;html=1;" vertex="1" parent="1">
          <mxGeometry x="590" y="315" width="60" height="30" as="geometry" />
        </mxCell>
        <mxCell id="AoXDjsUikcWKZWftnqkL-57" value="" style="endArrow=none;html=1;rounded=0;exitX=0.623;exitY=-0.022;exitDx=0;exitDy=0;exitPerimeter=0;entryX=0;entryY=1;entryDx=0;entryDy=0;" edge="1" parent="1" source="fyWzcG6_L9xURKWOEm6A-28" target="AoXDjsUikcWKZWftnqkL-56">
          <mxGeometry width="50" height="50" relative="1" as="geometry">
            <mxPoint x="370" y="450" as="sourcePoint" />
            <mxPoint x="590" y="340" as="targetPoint" />
            <Array as="points" />
          </mxGeometry>
        </mxCell>
        <mxCell id="AoXDjsUikcWKZWftnqkL-58" value="date" style="ellipse;whiteSpace=wrap;html=1;" vertex="1" parent="1">
          <mxGeometry x="677.5" y="307.5" width="50" height="30" as="geometry" />
        </mxCell>
        <mxCell id="AoXDjsUikcWKZWftnqkL-60" value="" style="endArrow=none;html=1;rounded=0;exitX=0.857;exitY=-0.022;exitDx=0;exitDy=0;exitPerimeter=0;entryX=0;entryY=1;entryDx=0;entryDy=0;" edge="1" parent="1" source="fyWzcG6_L9xURKWOEm6A-28" target="AoXDjsUikcWKZWftnqkL-58">
          <mxGeometry width="50" height="50" relative="1" as="geometry">
            <mxPoint x="370" y="450" as="sourcePoint" />
            <mxPoint x="280" y="640" as="targetPoint" />
            <Array as="points" />
          </mxGeometry>
        </mxCell>
        <mxCell id="AoXDjsUikcWKZWftnqkL-61" value="tips" style="ellipse;whiteSpace=wrap;html=1;" vertex="1" parent="1">
          <mxGeometry x="687.5" y="342.5" width="55" height="20" as="geometry" />
        </mxCell>
        <mxCell id="AoXDjsUikcWKZWftnqkL-62" value="" style="endArrow=none;html=1;rounded=0;exitX=1;exitY=0;exitDx=0;exitDy=0;entryX=0;entryY=0.5;entryDx=0;entryDy=0;" edge="1" parent="1" source="fyWzcG6_L9xURKWOEm6A-28" target="AoXDjsUikcWKZWftnqkL-61">
          <mxGeometry width="50" height="50" relative="1" as="geometry">
            <mxPoint x="370" y="450" as="sourcePoint" />
            <mxPoint x="420" y="400" as="targetPoint" />
          </mxGeometry>
        </mxCell>
        <mxCell id="AoXDjsUikcWKZWftnqkL-63" value="Prediction" style="rounded=0;whiteSpace=wrap;html=1;" vertex="1" parent="1">
          <mxGeometry x="598.75" y="455" width="80" height="30" as="geometry" />
        </mxCell>
        <mxCell id="AoXDjsUikcWKZWftnqkL-64" value="&lt;u&gt;id&lt;/u&gt;" style="ellipse;whiteSpace=wrap;html=1;" vertex="1" parent="1">
          <mxGeometry x="522.17" y="415" width="40" height="20" as="geometry" />
        </mxCell>
        <mxCell id="AoXDjsUikcWKZWftnqkL-65" value="user_id" style="ellipse;whiteSpace=wrap;html=1;" vertex="1" parent="1">
          <mxGeometry x="570" y="400" width="60" height="40" as="geometry" />
        </mxCell>
        <mxCell id="AoXDjsUikcWKZWftnqkL-66" value="date" style="ellipse;whiteSpace=wrap;html=1;" vertex="1" parent="1">
          <mxGeometry x="640" y="400" width="50" height="40" as="geometry" />
        </mxCell>
        <mxCell id="AoXDjsUikcWKZWftnqkL-67" value="result" style="ellipse;whiteSpace=wrap;html=1;" vertex="1" parent="1">
          <mxGeometry x="692.5" y="410" width="50" height="40" as="geometry" />
        </mxCell>
        <mxCell id="AoXDjsUikcWKZWftnqkL-69" value="" style="endArrow=none;dashed=1;html=1;dashPattern=1 3;strokeWidth=2;rounded=0;" edge="1" parent="1">
          <mxGeometry width="50" height="50" relative="1" as="geometry">
            <mxPoint x="585" y="429.5" as="sourcePoint" />
            <mxPoint x="615" y="429.5" as="targetPoint" />
          </mxGeometry>
        </mxCell>
        <mxCell id="AoXDjsUikcWKZWftnqkL-70" value="" style="endArrow=none;html=1;rounded=0;entryX=0;entryY=0;entryDx=0;entryDy=0;exitX=1;exitY=1;exitDx=0;exitDy=0;" edge="1" parent="1" source="AoXDjsUikcWKZWftnqkL-64" target="AoXDjsUikcWKZWftnqkL-63">
          <mxGeometry width="50" height="50" relative="1" as="geometry">
            <mxPoint x="370" y="460" as="sourcePoint" />
            <mxPoint x="420" y="410" as="targetPoint" />
          </mxGeometry>
        </mxCell>
        <mxCell id="AoXDjsUikcWKZWftnqkL-71" value="" style="endArrow=none;html=1;rounded=0;entryX=0.25;entryY=0;entryDx=0;entryDy=0;exitX=0.7;exitY=0.963;exitDx=0;exitDy=0;exitPerimeter=0;" edge="1" parent="1" source="AoXDjsUikcWKZWftnqkL-65" target="AoXDjsUikcWKZWftnqkL-63">
          <mxGeometry width="50" height="50" relative="1" as="geometry">
            <mxPoint x="370" y="460" as="sourcePoint" />
            <mxPoint x="420" y="410" as="targetPoint" />
          </mxGeometry>
        </mxCell>
        <mxCell id="AoXDjsUikcWKZWftnqkL-72" value="" style="endArrow=none;html=1;rounded=0;entryX=0.5;entryY=0;entryDx=0;entryDy=0;exitX=0.5;exitY=1;exitDx=0;exitDy=0;" edge="1" parent="1" source="AoXDjsUikcWKZWftnqkL-66" target="AoXDjsUikcWKZWftnqkL-63">
          <mxGeometry width="50" height="50" relative="1" as="geometry">
            <mxPoint x="370" y="460" as="sourcePoint" />
            <mxPoint x="420" y="410" as="targetPoint" />
          </mxGeometry>
        </mxCell>
        <mxCell id="AoXDjsUikcWKZWftnqkL-73" value="" style="endArrow=none;html=1;rounded=0;entryX=0;entryY=1;entryDx=0;entryDy=0;exitX=0.75;exitY=0;exitDx=0;exitDy=0;" edge="1" parent="1" source="AoXDjsUikcWKZWftnqkL-63" target="AoXDjsUikcWKZWftnqkL-67">
          <mxGeometry width="50" height="50" relative="1" as="geometry">
            <mxPoint x="370" y="460" as="sourcePoint" />
            <mxPoint x="420" y="410" as="targetPoint" />
          </mxGeometry>
        </mxCell>
        <mxCell id="AoXDjsUikcWKZWftnqkL-76" value="" style="endArrow=none;html=1;rounded=0;entryX=0;entryY=0.5;entryDx=0;entryDy=0;exitX=1;exitY=0.5;exitDx=0;exitDy=0;" edge="1" parent="1" source="Wvopbo3fsNnhGRtY6t6F-2" target="fyWzcG6_L9xURKWOEm6A-35">
          <mxGeometry width="50" height="50" relative="1" as="geometry">
            <mxPoint x="370" y="540" as="sourcePoint" />
            <mxPoint x="420" y="490" as="targetPoint" />
          </mxGeometry>
        </mxCell>
        <mxCell id="AoXDjsUikcWKZWftnqkL-77" value="" style="endArrow=none;html=1;rounded=0;entryX=0;entryY=0.5;entryDx=0;entryDy=0;exitX=1;exitY=0.5;exitDx=0;exitDy=0;" edge="1" parent="1" source="fyWzcG6_L9xURKWOEm6A-35" target="AoXDjsUikcWKZWftnqkL-63">
          <mxGeometry width="50" height="50" relative="1" as="geometry">
            <mxPoint x="540" y="467" as="sourcePoint" />
            <mxPoint x="420" y="490" as="targetPoint" />
          </mxGeometry>
        </mxCell>
        <mxCell id="AoXDjsUikcWKZWftnqkL-78" value="View" style="rhombus;whiteSpace=wrap;html=1;" vertex="1" parent="1">
          <mxGeometry x="270" y="350" width="50" height="40" as="geometry" />
        </mxCell>
        <mxCell id="AoXDjsUikcWKZWftnqkL-79" value="" style="endArrow=none;html=1;rounded=0;entryX=1;entryY=0.5;entryDx=0;entryDy=0;exitX=0.407;exitY=-0.048;exitDx=0;exitDy=0;exitPerimeter=0;" edge="1" parent="1" source="Wvopbo3fsNnhGRtY6t6F-2" target="AoXDjsUikcWKZWftnqkL-78">
          <mxGeometry width="50" height="50" relative="1" as="geometry">
            <mxPoint x="380" y="410" as="sourcePoint" />
            <mxPoint x="420" y="490" as="targetPoint" />
            <Array as="points">
              <mxPoint x="388" y="370" />
            </Array>
          </mxGeometry>
        </mxCell>
        <mxCell id="AoXDjsUikcWKZWftnqkL-80" value="" style="endArrow=none;html=1;rounded=0;entryX=0.25;entryY=1;entryDx=0;entryDy=0;exitX=0.5;exitY=0;exitDx=0;exitDy=0;" edge="1" parent="1" source="AoXDjsUikcWKZWftnqkL-78" target="e5oVYmnUQoA4widtPBJj-10">
          <mxGeometry width="50" height="50" relative="1" as="geometry">
            <mxPoint x="370" y="540" as="sourcePoint" />
            <mxPoint x="420" y="490" as="targetPoint" />
          </mxGeometry>
        </mxCell>
        <mxCell id="AoXDjsUikcWKZWftnqkL-81" value="View" style="rhombus;whiteSpace=wrap;html=1;" vertex="1" parent="1">
          <mxGeometry x="345" y="320" width="50" height="40" as="geometry" />
        </mxCell>
        <mxCell id="AoXDjsUikcWKZWftnqkL-82" value="" style="endArrow=none;html=1;rounded=0;entryX=0;entryY=0.5;entryDx=0;entryDy=0;exitX=1;exitY=0.5;exitDx=0;exitDy=0;" edge="1" parent="1" source="AoXDjsUikcWKZWftnqkL-81" target="fyWzcG6_L9xURKWOEm6A-28">
          <mxGeometry width="50" height="50" relative="1" as="geometry">
            <mxPoint x="370" y="470" as="sourcePoint" />
            <mxPoint x="420" y="420" as="targetPoint" />
            <Array as="points">
              <mxPoint x="410" y="340" />
              <mxPoint x="410" y="379" />
            </Array>
          </mxGeometry>
        </mxCell>
        <mxCell id="AoXDjsUikcWKZWftnqkL-83" value="" style="endArrow=none;html=1;rounded=0;entryX=0;entryY=0.5;entryDx=0;entryDy=0;exitX=1;exitY=0.5;exitDx=0;exitDy=0;" edge="1" parent="1" source="fyWzcG6_L9xURKWOEm6A-28" target="fyWzcG6_L9xURKWOEm6A-30">
          <mxGeometry width="50" height="50" relative="1" as="geometry">
            <mxPoint x="370" y="280" as="sourcePoint" />
            <mxPoint x="420" y="230" as="targetPoint" />
          </mxGeometry>
        </mxCell>
      </root>
    </mxGraphModel>
  </diagram>
</mxfile>
